
<svg xmlns="http://www.w3.org/2000/svg" version="1.1" xmlns:xlink="http://www.w3.org/1999/xlink" preserveAspectRatio="none" x="0px" y="0px" width="40px" height="40px" viewBox="0 0 40 40">
<defs/>

<g id="Layer_1">
<g transform="matrix( 0.2849578857421875, 0, 0, 0.2849578857421875, -79,-23.75) ">
<g>
<g>
<path fill="#E5E5E5" stroke="none" d="
M 352.9 154.9
Q 358.35 156.55 362.6 159.2 366.85 161.75 369.6 165.1
L 412.35 107.9
Q 401.7 96.75 382.35 90.35
L 352.9 154.9 Z"/>
</g>
</g>

<g transform="matrix( 3.50927734375, 0, 0, 3.50927734375, 277.2,83.3) ">
<path stroke="#487CBE" stroke-width="1" stroke-linejoin="round" stroke-linecap="round" fill="none" d="
M 38.502384185791016 6.996955871582031
L 26.3204345703125 23.296546936035156
Q 25.536800384521484 22.341938018798828 24.325729370117188 21.61529541015625 23.11465835571289 20.860157012939453 21.56163787841797 20.389976501464844
L 29.95364761352539 1.9959449768066406"/>
</g>
</g>

<g transform="matrix( 0.2849578857421875, 0, 0, 0.2849578857421875, -79,-23.75) ">
<g>
<g>
<path fill="#DE6CE1" stroke="none" d="
M 328.8 162.75
Q 326 164.9 324 169.35 322.85 171.85 320.65 178.55 318.45 185.3 316.75 189.1 314 195.15 310.15 199.65 304 206.9 292.95 210.15 287.85 211.5 286.1 211.95 283.2 212.7 282.95 213.5 282.4 215.1 284.1 215.85 286.3 216.75 292.1 216.3 293.45 216.25 295.9 216.25 296.65 216.25 301.15 216.3 307.1 216.35 324.05 215.1 340.95 213.75 352.75 209 362.45 205.1 367.1 200.45 374.9 192.65 374.9 181.6 374.9 170.6 367.1 162.75 363.3 158.95 358.5 157.05 353.95 155.25 348.25 154.95 342.05 154.65 337.2 157 334.65 158.25 328.8 162.75 Z"/>
</g>
</g>

<g transform="matrix( 3.50927734375, 0, 0, 3.50927734375, 277.2,83.3) ">
<path stroke="#487CBE" stroke-width="1" stroke-linejoin="round" stroke-linecap="round" fill="none" d="
M 27.830711364746094 27.99835205078125
Q 27.830711364746094 31.147136688232422 25.60803985595703 33.369808197021484 24.28298568725586 34.694862365722656 21.51889419555664 35.80619812011719 18.156391143798828 37.15974807739258 13.34060287475586 37.54444122314453 8.510566711425781 37.900638580322266 6.815067291259766 37.886390686035156 5.532756805419922 37.87214279174805 5.319038391113281 37.87214279174805 4.620891571044922 37.87214279174805 4.236198425292969 37.886390686035156 2.5834426879882812 38.01462173461914 1.9565353393554688 37.75815963745117 1.47210693359375 37.54444122314453 1.6288337707519531 37.08850860595703 1.7000732421875 36.86054229736328 2.5264511108398438 36.64682388305664 3.025127410888672 36.518592834472656 4.478412628173828 36.1338996887207 7.627197265625 35.207786560058594 9.379688262939453 33.141841888427734 10.476776123046875 31.85953140258789 11.26041030883789 30.135536193847656 11.74483871459961 29.052696228027344 12.371746063232422 27.129230499267578 12.998653411865234 25.220012664794922 13.32635498046875 24.507617950439453 13.896270751953125 23.23955535888672 14.69415283203125 22.626895904541016 16.361156463623047 21.344585418701172 17.087799072265625 20.988388061523438 18.469844818115234 20.318737030029297 20.236583709716797 20.404224395751953 21.860843658447266 20.48971176147461 23.15740203857422 21.002635955810547 24.52519989013672 21.544055938720703 25.60803985595703 22.626895904541016 27.830711364746094 24.863815307617188 27.830711364746094 27.99835205078125 Z"/>
</g>
</g>
</g>

<g id="Layer_2"/>
</svg>
