
<svg xmlns="http://www.w3.org/2000/svg" version="1.1" xmlns:xlink="http://www.w3.org/1999/xlink" preserveAspectRatio="none" x="0px" y="0px" width="40px" height="40px" viewBox="0 0 40 40">
<defs/>

<g id="Layer_1">
<g transform="matrix( 0.2849578857421875, 0, 0, 0.2849578857421875, -102.8,-72.15) ">
<g>
<g>
<path fill="#E5E5E5" stroke="none" d="
M 446.15 329.1
Q 450.4 331.7 453.15 335.05
L 495.9 277.85
Q 485.25 266.65 465.9 260.25
L 436.45 324.85
Q 441.9 326.45 446.15 329.1 Z"/>
</g>
</g>

<g transform="matrix( 3.50927734375, 0, 0, 3.50927734375, 360.75,253.15) ">
<path stroke="#487CBE" stroke-width="1" stroke-linejoin="round" stroke-linecap="round" fill="none" d="
M 38.510615539550784 7.025548553466791
L 26.32866592407227 23.325139617919916
Q 25.545031738281253 22.370530700683588 24.333960723876956 21.6296401977539 23.12288970947266 20.874501800537104 21.569869232177737 20.418569183349604
L 29.96187896728516 2.010289764404291"/>
</g>
</g>

<g transform="matrix( 0.2849578857421875, 0, 0, 0.2849578857421875, -102.8,-72.15) ">
<g>
<g>
<path fill="#32CD32" stroke="none" d="
M 400.3 359
Q 397.55 365.05 393.7 369.55 387.55 376.85 376.5 380.1 371.4 381.4 369.65 381.9 366.75 382.65 366.5 383.45 365.95 385.05 367.65 385.75 369.85 386.65 375.65 386.25 377 386.15 379.45 386.15 380.2 386.15 384.7 386.2 390.65 386.3 407.6 385 424.5 383.7 436.3 378.95 446 375.05 450.65 370.4 458.45 362.6 458.45 351.55 458.45 340.5 450.65 332.65 446.85 328.9 442.05 326.95 437.5 325.15 431.8 324.85 425.6 324.55 420.75 326.9 418.2 328.15 412.35 332.65 409.55 334.85 407.55 339.25 406.4 341.75 404.2 348.45 402 355.2 400.3 359 Z"/>
</g>
</g>

<g transform="matrix( 3.50927734375, 0, 0, 3.50927734375, 360.75,253.15) ">
<path stroke="#487CBE" stroke-width="1" stroke-linejoin="round" stroke-linecap="round" fill="none" d="
M 27.838942718505862 28.02694473266601
Q 27.838942718505862 31.175729370117182 25.6162712097168 33.398400878906244 24.291217041015628 34.723455047607416 21.52712554931641 35.83479080200195 18.164622497558597 37.18834075927734 13.348834228515628 37.55878601074218 8.51879806518555 37.929231262207026 6.823298645019534 37.90073547363281 5.54098815917969 37.8864875793457 5.32726974487305 37.8864875793457 4.62912292480469 37.8864875793457 4.244429779052737 37.914983367919916 2.5916740417480497 38.02896652221679 1.9647666931152372 37.77250442504882 1.4803382873535185 37.57303390502929 1.6370651245117216 37.11710128784179 1.7083045959472685 36.88913497924804 2.534682464599612 36.6754165649414 3.0333587646484403 36.53293762207031 4.486643981933597 36.16249237060546 7.6354286193847685 35.236379241943354 9.387919616699222 33.156186676025385 10.485007476806643 31.87387619018554 11.268641662597659 30.149880981445307 11.753070068359378 29.067041015624994 12.37997741699219 27.14357528686523 13.006884765625003 25.234357452392572 13.334586334228518 24.521962738037104 13.904502105712893 23.26814804077148 14.702384185791018 22.641240692138666 16.369387817382815 21.358930206298822 17.096030426025393 21.002732849121088 18.478076171875003 20.333081817626947 20.244815063476565 20.418569183349604 21.869075012207034 20.50405654907226 23.165633392333987 21.016980743408197 24.533431243896487 21.572648620605463 25.6162712097168 22.641240692138666 27.838942718505862 24.878160095214838 27.838942718505862 28.02694473266601 Z"/>
</g>
</g>
</g>

<g id="Layer_2"/>
</svg>
