
<svg xmlns="http://www.w3.org/2000/svg" version="1.1" xmlns:xlink="http://www.w3.org/1999/xlink" preserveAspectRatio="none" x="0px" y="0px" width="40px" height="40px" viewBox="0 0 40 40">
<defs/>

<g id="Layer_1">
<g transform="matrix( 0.2849578857421875, 0, 0, 0.2849578857421875, -18.75,-74.45) ">
<g>
<g>
<path fill="#E5E5E5" stroke="none" d="
M 151.2 337.05
Q 155.45 339.65 158.2 343
L 200.95 285.8
Q 190.3 274.6 170.95 268.2
L 141.5 332.8
Q 146.95 334.4 151.2 337.05 Z"/>
</g>
</g>

<g transform="matrix( 3.50927734375, 0, 0, 3.50927734375, 65.75,261.25) ">
<path stroke="#487CBE" stroke-width="1" stroke-linejoin="round" stroke-linecap="round" fill="none" d="
M 38.51228713989258 6.990963745117185
L 26.330337524414062 23.29055480957031
Q 25.546703338623047 22.33594589233398 24.33563232421875 21.595055389404294 23.124561309814453 20.839916992187497 21.57154083251953 20.383984374999997
L 29.963550567626953 1.9757049560546847"/>
</g>
</g>

<g transform="matrix( 0.2849578857421875, 0, 0, 0.2849578857421875, -18.75,-74.45) ">
<g>
<g>
<path fill="#000000" stroke="none" d="
M 72.7 393.7
Q 74.9 394.6 80.7 394.2 82.05 394.1 84.5 394.1 85.25 394.1 89.75 394.15 95.7 394.25 112.65 392.95 129.55 391.65 141.35 386.9 151.05 383 155.7 378.35 163.5 370.55 163.5 359.5 163.5 348.45 155.7 340.6 151.9 336.85 147.1 334.9 142.55 333.1 136.85 332.8 130.65 332.5 125.8 334.85 123.25 336.1 117.4 340.6 114.6 342.8 112.6 347.2 111.45 349.7 109.25 356.4 107.05 363.15 105.35 366.95 102.6 373 98.75 377.5 92.6 384.8 81.55 388.05 76.45 389.35 74.7 389.85 71.8 390.6 71.55 391.4 71 393 72.7 393.7 Z"/>
</g>
</g>

<g transform="matrix( 3.50927734375, 0, 0, 3.50927734375, 65.75,261.25) ">
<path stroke="#487CBE" stroke-width="1" stroke-linejoin="round" stroke-linecap="round" fill="none" d="
M 27.840614318847656 27.992359924316403
Q 27.840614318847656 31.141144561767575 25.617942810058594 33.36381607055664 24.292888641357422 34.68887023925781 21.528797149658203 35.80020599365234 18.16629409790039 37.15375595092773 13.350505828857422 37.524201202392575 8.520469665527344 37.89464645385742 6.824970245361328 37.8661506652832 5.542659759521484 37.85190277099609 5.328941345214844 37.85190277099609 4.630794525146484 37.85190277099609 4.246101379394531 37.88039855957031 2.5933456420898438 37.994381713867185 1.9664382934570312 37.737919616699216 1.4820098876953125 37.538449096679685 1.6387367248535156 37.082516479492185 1.7099761962890625 36.854550170898435 2.5363540649414062 36.640831756591794 3.0350303649902344 36.4983528137207 4.488315582275391 36.12790756225586 7.6371002197265625 35.20179443359375 9.389591217041016 33.12160186767578 10.486679077148438 31.839291381835935 11.270313262939453 30.1152961730957 11.754741668701172 29.032456207275388 12.381649017333984 27.108990478515622 13.008556365966797 25.199772644042966 13.336257934570312 24.487377929687497 13.906173706054688 23.233563232421872 14.704055786132812 22.60665588378906 16.37105941772461 21.324345397949216 17.097702026367188 20.96814804077148 18.479747772216797 20.29849700927734 20.24648666381836 20.383984374999997 21.870746612548828 20.469471740722653 23.16730499267578 20.98239593505859 24.53510284423828 21.538063812255857 25.617942810058594 22.60665588378906 27.840614318847656 24.84357528686523 27.840614318847656 27.992359924316403 Z"/>
</g>
</g>
</g>

<g id="Layer_2"/>
</svg>
