
<svg xmlns="http://www.w3.org/2000/svg" version="1.1" xmlns:xlink="http://www.w3.org/1999/xlink" preserveAspectRatio="none" x="0px" y="0px" width="40px" height="40px" viewBox="0 0 40 40">
<defs/>

<g id="Layer_1">
<g transform="matrix( 0.2849578857421875, 0, 0, 0.2849578857421875, -11.95,-121.65) ">
<g>
<g>
<path fill="#E5E5E5" stroke="none" d="
M 127.2 502.75
Q 131.45 505.35 134.2 508.7
L 176.95 451.5
Q 166.3 440.3 146.95 433.9
L 117.5 498.5
Q 122.95 500.1 127.2 502.75 Z"/>
</g>
</g>

<g transform="matrix( 3.50927734375, 0, 0, 3.50927734375, 41.9,426.9) ">
<path stroke="#487CBE" stroke-width="1" stroke-linejoin="round" stroke-linecap="round" fill="none" d="
M 38.473297882080075 7.008485412597651
L 26.291348266601563 23.308076477050776
Q 25.507714080810548 22.353467559814447 24.29664306640625 21.61257705688476 23.085572052001954 20.857438659667963 21.532551574707032 20.401506042480463
L 29.924561309814454 1.9932266235351506"/>
</g>
</g>

<g transform="matrix( 0.2849578857421875, 0, 0, 0.2849578857421875, -11.95,-121.65) ">
<g>
<g>
<path fill="#FF0000" stroke="none" d="
M 60.5 559.8
Q 61.25 559.8 65.75 559.85 71.7 559.95 88.65 558.65 105.55 557.35 117.35 552.6 127.05 548.7 131.7 544.05 139.5 536.25 139.5 525.2 139.5 514.15 131.7 506.3 127.9 502.55 123.1 500.6 118.55 498.8 112.85 498.5 106.65 498.2 101.8 500.55 99.25 501.8 93.4 506.3 90.6 508.5 88.6 512.9 87.45 515.4 85.25 522.1 83.05 528.85 81.35 532.65 78.6 538.7 74.75 543.2 68.6 550.5 57.55 553.75 52.45 555.05 50.7 555.55 47.8 556.3 47.55 557.1 47 558.7 48.7 559.4 50.9 560.3 56.7 559.9 58.05 559.8 60.5 559.8 Z"/>
</g>
</g>

<g transform="matrix( 3.50927734375, 0, 0, 3.50927734375, 41.9,426.9) ">
<path stroke="#487CBE" stroke-width="1" stroke-linejoin="round" stroke-linecap="round" fill="none" d="
M 27.801625061035157 28.00988159179687
Q 27.801625061035157 31.15866622924804 25.578953552246094 33.381337738037104 24.253899383544923 34.706391906738276 21.489807891845704 35.81772766113281 18.12730484008789 37.1712776184082 13.311516571044923 37.54172286987304 8.481480407714844 37.912168121337885 6.785980987548829 37.883672332763666 5.503670501708985 37.86942443847656 5.2899520874023445 37.86942443847656 4.591805267333985 37.86942443847656 4.207112121582032 37.897920227050776 2.5543563842773445 38.01190338134765 1.927449035644532 37.75544128417968 1.4430206298828132 37.55597076416015 1.5997474670410163 37.10003814697265 1.6709869384765632 36.8720718383789 2.497364807128907 36.65835342407226 2.996041107177735 36.515874481201166 4.449326324462891 36.14542922973632 7.598110961914063 35.21931610107421 9.350601959228516 33.139123535156244 10.447689819335938 31.8568130493164 11.231324005126954 30.132817840576166 11.715752410888673 29.049977874755854 12.342659759521485 27.126512145996088 12.969567108154298 25.217294311523432 13.297268676757813 24.504899597167963 13.867184448242188 23.251084899902338 14.665066528320313 22.624177551269526 16.33207015991211 21.341867065429682 17.058712768554688 20.985669708251947 18.440758514404298 20.316018676757807 20.20749740600586 20.401506042480463 21.83175735473633 20.48699340820312 23.128315734863282 20.999917602539057 24.496113586425782 21.555585479736322 25.578953552246094 22.624177551269526 27.801625061035157 24.861096954345697 27.801625061035157 28.00988159179687 Z"/>
</g>
</g>
</g>

<g id="Layer_2"/>
</svg>
