
<svg xmlns="http://www.w3.org/2000/svg" version="1.1" xmlns:xlink="http://www.w3.org/1999/xlink" preserveAspectRatio="none" x="0px" y="0px" width="40px" height="40px" viewBox="0 0 40 40">
<defs/>

<g id="Layer_1">
<g transform="matrix( 0.2849578857421875, 0, 0, 0.2849578857421875, -118.25,-26.45) ">
<g>
<g>
<path fill="#E5E5E5" stroke="none" d="
M 500.4 168.7
Q 504.65 171.25 507.4 174.6
L 550.15 117.4
Q 539.5 106.25 520.15 99.85
L 490.7 164.4
Q 496.15 166.05 500.4 168.7 Z"/>
</g>
</g>

<g transform="matrix( 3.50927734375, 0, 0, 3.50927734375, 414.95,92.8) ">
<path stroke="#487CBE" stroke-width="1" stroke-linejoin="round" stroke-linecap="round" fill="none" d="
M 38.51958084106445 7.004055786132813
L 26.337631225585938 23.303646850585938
Q 25.553997039794922 22.34903793334961 24.342926025390625 21.622395324707032 23.131855010986328 20.867256927490235 21.578834533691406 20.397076416015626
L 29.970844268798828 2.0030448913574226"/>
</g>
</g>

<g transform="matrix( 0.2849578857421875, 0, 0, 0.2849578857421875, -118.25,-26.45) ">
<g>
<g>
<path fill="#FFCC00" stroke="none" d="
M 496.3 166.55
Q 491.75 164.75 486.05 164.45 479.85 164.15 475 166.5 472.45 167.75 466.6 172.25 463.8 174.4 461.8 178.85 460.65 181.35 458.45 188.05 456.25 194.8 454.55 198.6 451.8 204.65 447.95 209.15 441.8 216.4 430.75 219.65 425.65 221 423.9 221.45 421 222.2 420.75 223 420.2 224.6 421.9 225.35 424.1 226.25 429.9 225.8 431.25 225.75 433.7 225.75 434.45 225.75 438.95 225.8 444.9 225.85 461.85 224.6 478.75 223.25 490.55 218.5 500.25 214.6 504.9 209.95 512.7 202.15 512.7 191.1 512.7 180.1 504.9 172.25 501.1 168.45 496.3 166.55 Z"/>
</g>
</g>

<g transform="matrix( 3.50927734375, 0, 0, 3.50927734375, 414.95,92.8) ">
<path stroke="#487CBE" stroke-width="1" stroke-linejoin="round" stroke-linecap="round" fill="none" d="
M 27.84790802001953 28.005451965332032
Q 27.84790802001953 31.154236602783204 25.62523651123047 33.37690811157226 24.300182342529297 34.701962280273435 21.536090850830078 35.813298034667966 18.173587799072266 37.16684799194336 13.357799530029297 37.55154113769531 8.527763366699219 37.907738494873044 6.832263946533203 37.893490600585935 5.549953460693359 37.879242706298825 5.336235046386719 37.879242706298825 4.638088226318359 37.879242706298825 4.253395080566406 37.893490600585935 2.6006393432617188 38.02172164916992 1.9737319946289062 37.76525955200195 1.4893035888671875 37.55154113769531 1.6460304260253906 37.09560852050781 1.7172698974609375 36.86764221191406 2.5436477661132812 36.65392379760742 3.0423240661621094 36.525692749023435 4.495609283447266 36.14099960327148 7.6443939208984375 35.21488647460937 9.39688491821289 33.14894180297851 10.493972778320312 31.866631317138673 11.277606964111328 30.142636108398438 11.762035369873047 29.059796142578126 12.38894271850586 27.13633041381836 13.015850067138672 25.227112579345704 13.343551635742188 24.514717864990235 13.913467407226562 23.2466552734375 14.711349487304688 22.633995819091798 16.378353118896484 21.351685333251954 17.104995727539062 20.99548797607422 18.487041473388672 20.32583694458008 20.253780364990234 20.411324310302735 21.878040313720703 20.49681167602539 23.174598693847656 21.00973587036133 24.542396545410156 21.551155853271485 25.62523651123047 22.633995819091798 27.84790802001953 24.87091522216797 27.84790802001953 28.005451965332032 Z"/>
</g>
</g>
</g>

<g id="Layer_2"/>
</svg>
