
<svg xmlns="http://www.w3.org/2000/svg" version="1.1" xmlns:xlink="http://www.w3.org/1999/xlink" preserveAspectRatio="none" x="0px" y="0px" width="40px" height="40px" viewBox="0 0 40 40">
<defs/>

<g id="Layer_1">
<g transform="matrix( 0.2849578857421875, 0, 0, 0.2849578857421875, -65.9,-74.45) ">
<g>
<g>
<path fill="#E5E5E5" stroke="none" d="
M 366.35 285.75
Q 355.65 274.6 336.3 268.2
L 306.85 332.75
Q 312.3 334.4 316.6 337.05 320.8 339.6 323.6 342.95
L 366.35 285.75 Z"/>
</g>
</g>

<g transform="matrix( 3.50927734375, 0, 0, 3.50927734375, 231.25,261.25) ">
<path stroke="#487CBE" stroke-width="1" stroke-linejoin="round" stroke-linecap="round" fill="none" d="
M 38.494321441650385 6.976715850830075
L 26.31237182617187 23.2763069152832
Q 25.514489746093744 22.321697998046872 24.317666625976557 21.595055389404294 23.09234771728515 20.839916992187497 21.53932723999023 20.369736480712888
L 29.93133697509765 1.9757049560546847"/>
</g>
</g>

<g transform="matrix( 0.2849578857421875, 0, 0, 0.2849578857421875, -65.9,-74.45) ">
<g>
<g>
<path fill="#CFCFCF" stroke="none" d="
M 236.95 391.35
Q 236.4 392.95 238.1 393.7 240.25 394.6 246.1 394.15 247.45 394.1 249.85 394.1 250.6 394.1 255.1 394.15 261.1 394.2 278 392.95 294.95 391.6 306.75 386.85 316.45 382.95 321.05 378.3 328.9 370.5 328.9 359.45 328.9 348.45 321.05 340.6 317.3 336.8 312.45 334.9 307.9 333.1 302.2 332.8 296 332.5 291.2 334.85 288.6 336.1 282.8 340.6 280 342.75 277.95 347.2 276.8 349.7 274.65 356.4 272.45 363.15 270.7 366.95 267.95 373 264.1 377.5 257.95 384.75 246.95 388 241.85 389.35 240.1 389.8 237.2 390.55 236.95 391.35 Z"/>
</g>
</g>

<g transform="matrix( 3.50927734375, 0, 0, 3.50927734375, 231.25,261.25) ">
<path stroke="#487CBE" stroke-width="1" stroke-linejoin="round" stroke-linecap="round" fill="none" d="
M 27.822648620605463 27.978112030029294
Q 27.822648620605463 31.126896667480466 25.58572921752929 33.34956817626953 24.27492294311523 34.6746223449707 21.51083145141601 35.78595809936523 18.148328399658197 37.13950805664062 13.31829223632812 37.524201202392575 8.50250396728515 37.88039855957031 6.792756652832026 37.8661506652832 5.510446166992182 37.85190277099609 5.296727752685541 37.85190277099609 4.612828826904291 37.85190277099609 4.228135681152338 37.8661506652832 2.561132049560541 37.994381713867185 1.948472595214838 37.737919616699216 1.4640441894531193 37.524201202392575 1.6207710266113224 37.068268585205075 1.6920104980468693 36.840302276611325 2.518388366699213 36.626583862304685 3.017064666748041 36.4983528137207 4.470349884033197 36.11365966796875 7.60488662719726 35.18754653930664 9.357377624511713 33.12160186767578 10.454465484619135 31.839291381835935 11.23809967041015 30.1152961730957 11.736775970458979 29.032456207275388 12.363683319091791 27.108990478515622 12.976342773437494 25.199772644042966 13.30404434204101 24.487377929687497 13.888208007812494 23.219315338134763 14.68609008789062 22.60665588378906 16.338845825195307 21.324345397949216 17.079736328124994 20.96814804077148 18.447534179687494 20.29849700927734 20.214273071289057 20.383984374999997 21.838533020019526 20.469471740722653 23.13509140014648 20.98239593505859 24.517137145996088 21.523815917968747 25.58572921752929 22.60665588378906 27.822648620605463 24.84357528686523 27.822648620605463 27.978112030029294 Z"/>
</g>
</g>
</g>

<g id="Layer_2"/>
</svg>
