
<svg xmlns="http://www.w3.org/2000/svg" version="1.1" xmlns:xlink="http://www.w3.org/1999/xlink" preserveAspectRatio="none" x="0px" y="0px" width="40px" height="40px" viewBox="0 0 40 40">
<defs/>

<g id="Layer_1">
<g transform="matrix( 0.28497314453125, 0, 0, 0.28497314453125, -28.95,-23.75) ">
<g>
<g>
<path fill="#E5E5E5" stroke="none" d="
M 187.05 159.25
Q 191.3 161.85 194.05 165.15
L 236.8 107.95
Q 226.15 96.8 206.8 90.4
L 177.35 154.95
Q 182.8 156.6 187.05 159.25 Z"/>
</g>
</g>

<g transform="matrix( 3.50909423828125, 0, 0, 3.50909423828125, 101.55,83.3) ">
<path stroke="#487CBE" stroke-width="1" stroke-linejoin="round" stroke-linecap="round" fill="none" d="
M 38.531640624999994 7.012850952148437
L 26.349038696289067 23.313314819335936
Q 25.56536254882813 22.372903442382814 24.354226684570317 21.631973266601562 23.143090820312505 20.87679443359375 21.58998718261719 20.406588745117183
L 29.982446289062505 2.011572265625002"/>
</g>
</g>

<g transform="matrix( 0.28497314453125, 0, 0, 0.28497314453125, -28.95,-23.75) ">
<g>
<g>
<path fill="#0ABEDC" stroke="none" d="
M 182.9 157.05
Q 178.35 155.25 172.65 155 166.45 154.65 161.65 157 159.05 158.3 153.25 162.8 150.45 164.95 148.45 169.35 147.3 171.85 145.1 178.6 142.9 185.35 141.2 189.1 138.45 195.15 134.6 199.7 128.4 206.95 117.4 210.2 112.3 211.5 110.55 212 107.65 212.75 107.4 213.55 106.85 215.15 108.55 215.85 110.7 216.75 116.55 216.35 117.9 216.25 120.3 216.3 121.1 216.3 125.55 216.35 131.55 216.4 148.5 215.1 165.4 213.8 177.2 209.05 186.9 205.15 191.5 200.5 199.35 192.7 199.35 181.65 199.35 170.6 191.5 162.8 187.75 159 182.9 157.05 Z"/>
</g>
</g>

<g transform="matrix( 3.50909423828125, 0, 0, 3.50909423828125, 101.55,83.3) ">
<path stroke="#487CBE" stroke-width="1" stroke-linejoin="round" stroke-linecap="round" fill="none" d="
M 27.85939636230469 28.01537170410156
Q 27.85939636230469 31.16432495117187 25.622357177734376 33.387115478515625 24.311480712890624 34.712240600585936 21.547241210937496 35.82363586425782 18.18455810546875 37.177258300781254 13.368511962890626 37.547723388671876 8.538217163085942 37.9181884765625 6.828378295898435 37.90393981933594 5.560247802734377 37.88969116210938 5.332269287109373 37.88969116210938 4.648333740234374 37.87544250488281 4.263619995117185 37.90393981933594 2.596527099609375 38.01792907714844 1.983834838867189 37.761453247070314 1.499380493164061 37.561972045898436 1.6561157226562528 37.10601501464844 1.7273590087890653 36.87803649902344 2.553781127929689 36.664306640625 3.052484130859373 36.521820068359375 4.505847167968749 36.151354980468746 7.640551757812499 35.22519226074218 9.407385253906252 33.15913696289062 10.504531860351559 31.862509155273436 11.288208007812496 30.138421630859376 11.772662353515624 29.06977233886719 12.399603271484377 27.14620361328125 13.02654418945313 25.222634887695314 13.354263305664059 24.51020202636719 13.924209594726559 23.256320190429683 14.722134399414063 22.643627929687504 16.374978637695317 21.36124877929688 17.115908813476562 20.99078369140625 18.48377990722656 20.32109680175781 20.250613403320312 20.42083740234375 21.87496032714844 20.492080688476562 23.171588134765624 21.005032348632817 24.553707885742188 21.56072998046875 25.622357177734376 22.643627929687504 27.85939636230469 24.86641845703125 27.85939636230469 28.01537170410156 Z"/>
</g>
</g>
</g>

<g id="Layer_2"/>
</svg>
