<?xml version="1.0" encoding="utf-8"?>
<!-- Generator: Adobe Illustrator 26.5.0, SVG Export Plug-In . SVG Version: 6.00 Build 0)  -->
<svg version="1.1" id="Layer_1" xmlns="http://www.w3.org/2000/svg" xmlns:xlink="http://www.w3.org/1999/xlink" x="0px" y="0px"
	 viewBox="0 0 100 100" style="enable-background:new 0 0 100 100;" xml:space="preserve">
<style type="text/css">
	.st0{fill:none;stroke:#487CBE;stroke-width:2;stroke-linecap:square;stroke-miterlimit:10;}
	.st1{fill:none;stroke:#487CBE;stroke-width:2;stroke-linecap:round;stroke-miterlimit:10;}
</style>
<g>
	<path class="st0" d="M18,36.61h63.81L82,30.35c0,0,0.25-5.28-5.35-6c-2.33-0.3-51.76,0-52.71,0c0,0-5.66,0.45-5.94,6l0,0V36.61z"/>
	<path class="st0" d="M39.36,24.22h21.42v-6.75l0,0c-0.21-1.01-0.95-2.47-2.67-2.6l0,0H42.95l0,0c-1.94-0.09-3.46,1.59-3.59,3.19
		l0,0V24.22z"/>
	<path class="st0" d="M23.72,36.61v42.24c0,0,0,6.33,5.38,6.28c4.15-0.04,41.16,0,41.16,0s4.93,0,5.5-5.5c0.46-4.48,0-43.03,0-43.03
		H23.72z"/>
	<g>
		<line class="st1" x1="49.84" y1="48.55" x2="49.84" y2="73.19"/>
		<line class="st1" x1="36.95" y1="48.55" x2="36.95" y2="73.19"/>
		<line class="st1" x1="62.72" y1="48.55" x2="62.72" y2="73.19"/>
	</g>
</g>
<g>
</g>
<g>
</g>
<g>
</g>
<g>
</g>
<g>
</g>
<g>
</g>
</svg>
