<?xml version="1.0" encoding="utf-8"?>
<!-- Generator: Adobe Illustrator 26.0.3, SVG Export Plug-In . SVG Version: 6.00 Build 0)  -->
<svg version="1.1" id="Layer_1" xmlns="http://www.w3.org/2000/svg" xmlns:xlink="http://www.w3.org/1999/xlink" x="0px" y="0px"
	 viewBox="0 0 77.4 62.6" style="enable-background:new 0 0 77.4 62.6;" xml:space="preserve">
<style type="text/css">
	.st0{fill:#487CBE;}
	.st1{fill:none;stroke:#487CBE;stroke-width:2;stroke-miterlimit:10;}
	.st2{enable-background:new    ;}
	.st3{fill:#AAAAA6;}
</style>
<circle class="st0" cx="6.5" cy="56.1" r="6.5"/>
<circle class="st0" cx="70.9" cy="13.4" r="6.5"/>
<line class="st1" x1="6.5" y1="56.1" x2="70.9" y2="13.4"/>
<g class="st2">
	<g>
		<path class="st3" d="M26.9,11c3.4,0,5.8,2,6.9,4.1v-3.8h3.1V32h-3.1v-3.9c-1.1,2.2-3.5,4.2-6.9,4.2c-4.9,0-8.7-4.3-8.7-10.8
			C18.2,15.2,22,11,26.9,11z M27.5,14c-3.4,0-6.2,2.8-6.2,7.6s2.9,7.7,6.2,7.7s6.2-2.8,6.2-7.7C33.8,16.9,30.9,14,27.5,14z"/>
	</g>
</g>
</svg>
