<svg xmlns="http://www.w3.org/2000/svg" viewBox="0 0 62.15 46.57"><defs><style>.cls-1{fill:#487cbe;}</style></defs><g id="Layer_2" data-name="Layer 2"><g id="Layer_1-2" data-name="Layer 1"><path class="cls-1" d="M0,46.06,16.21,0h4l16.3,46.06H31.36l-4.3-13.3H9.37L5.15,46.06ZM10.86,27.82H25.42C23,20.25,20.64,13.75,18.17,6.33,12.91,22.26,15.51,13.66,10.86,27.82Z"/><path class="cls-1" d="M51.7,46.57a9,9,0,0,1-4.22-1,8.83,8.83,0,0,1-3.12-2.66A12.61,12.61,0,0,1,42.48,39a16.33,16.33,0,0,1-.66-4.7A15.65,15.65,0,0,1,43,28.14a10.53,10.53,0,0,1,3.46-4.45A8.59,8.59,0,0,1,51.7,22a7.07,7.07,0,0,1,4,1.21,7.81,7.81,0,0,1,2.74,3.11V22.62h3.69V46.06H58.42v-4a7.36,7.36,0,0,1-2.65,3.3A7.07,7.07,0,0,1,51.7,46.57Zm.53-3.43A5.33,5.33,0,0,0,57,40.71a11.61,11.61,0,0,0,1.63-6.55,10.88,10.88,0,0,0-1.66-6.3,5.41,5.41,0,0,0-4.74-2.41,5.64,5.64,0,0,0-4.93,2.43,10.91,10.91,0,0,0-1.69,6.35,11.1,11.1,0,0,0,1.71,6.43A5.63,5.63,0,0,0,52.23,43.14Z"/></g></g></svg>