
<svg xmlns="http://www.w3.org/2000/svg" version="1.1" xmlns:xlink="http://www.w3.org/1999/xlink" preserveAspectRatio="none" x="0px" y="0px" width="223px" height="117px" viewBox="0 0 223 117">
<defs>
<g id="Layer0_0_MEMBER_0_FILL">
<path fill="#FFFFFF" stroke="none" d="
M 1.1 0.55
L 1.1 117.8 113.1 117.8 113.1 0.55 1.1 0.55 Z"/>
</g>

<g id="Layer0_0_MEMBER_1_FILL">
<path fill="#E42518" stroke="none" d="
M 225.05 117.8
L 225.05 0.55 113.1 0.55 113.1 117.8 225.05 117.8 Z"/>
</g>

<g id="Layer0_0_MEMBER_2_MEMBER_0_FILL">
<path fill="#FFFFFF" stroke="none" d="
M 196.35 58.2
L 196.45 51.05 191.35 52 191.25 58.2 186.75 58.2 186.75 62.1 191.25 62.1 191.25 76.65
Q 191.25 80.9 192.7 82.85 194.15 84.8 197.3 84.8 199.05 84.8 200.25 84.5 201.3 84.25 203.1 83.4
L 203.1 79.15
Q 201.55 79.75 201.15 79.9 200.1 80.2 199.1 80.2 197.6 80.2 197 79.3 196.35 78.35 196.35 76.05
L 196.35 62.1 207.9 62.1 207.9 76.65
Q 207.9 80.9 209.3 82.85 210.75 84.8 214 84.8 215.6 84.8 217 84.45 218.1 84.1 219.9 83.3
L 219.9 79.15
Q 217.3 80.2 215.7 80.2 214.2 80.2 213.6 79.3 212.95 78.4 212.95 76.05
L 212.95 62.1 220.2 62.1 220.2 58.2 212.95 58.2 213.15 51.05 208 52 207.9 58.2 196.35 58.2 Z"/>
</g>

<g id="Layer0_0_MEMBER_2_MEMBER_1_FILL">
<path fill="#FFFFFF" stroke="none" d="
M 154.95 46.1
L 149.75 47.05 149.75 84.5 154.95 84.5 154.95 46.1 Z"/>
</g>

<g id="Layer0_0_MEMBER_2_MEMBER_2_FILL">
<path fill="#FFFFFF" stroke="none" d="
M 144.45 48.15
L 144.75 48.15 144.75 47.6 138.3 47.6 125.5 63.75 125.35 64.35 125.1 64.35 125.25 63.8 125.25 47.6 119.85 47.6 119.85 84.5 125.25 84.5 125.25 67.55 125.1 66.85 125.35 66.7 125.5 67.3 138.5 84.5 145.35 84.5 145.35 83.85 145.05 83.85 130.55 65.2 144.45 48.15 Z"/>
</g>

<g id="Layer0_0_MEMBER_2_MEMBER_3_FILL">
<path fill="#FFFFFF" stroke="none" d="
M 183.65 72.45
L 183.65 71.2
Q 183.65 68 183.25 65.9 182.6 62.75 180.85 60.7 178 57.3 173 57.3 167.35 57.3 164.2 61 161.1 64.65 161.1 71 161.1 77.4 164.3 81.2 167.6 85.05 173.25 85.05 176.45 85.05 179.7 83.55 181.55 82.75 182.6 82
L 181.15 77.85
Q 179.45 78.85 178.6 79.25 177.45 79.75 176.05 80 174.9 80.2 173.7 80.2 168.9 80.2 167.3 76.3 166.8 75.15 166.5 72.45
L 183.65 72.45
M 167.2 64.95
Q 168.15 62.95 169.85 62 171.25 61.2 172.6 61.2 175.55 61.2 177.1 63.45 177.75 64.45 177.95 65.45 178.2 66.35 178.35 68.4
L 166.5 68.4
Q 166.65 66.15 167.2 64.95 Z"/>
</g>

<g id="Layer0_0_MEMBER_2_MEMBER_4_FILL">
<path fill="#00628C" stroke="none" d="
M 92 47.55
Q 86.4 47.55 81.45 49.25 74.25 51.65 70 57.25
L 69.7 57.8 69.5 57.75 69.7 57.25
Q 70.3 54.15 70.85 49 71.65 41.05 71.65 33.35 71.65 24 70.55 18.15 69.8 13.9 68.65 12.25 67.35 10.35 65.5 9.25
L 63.9 8.5
Q 61 12.35 58.1 17.5 52.3 27.75 52.3 34.15 52.3 44.85 54.55 69.45 56.5 90.75 58.45 105.45
L 62.35 100.7
Q 61.2 88.6 60.35 68.3 59.45 47.95 59.45 34.05 59.45 20.95 60.25 19.15
L 61.5 19.95
Q 62.3 20.6 62.6 21.7 64.4 28.2 64.4 55
L 64.3 62.75
Q 64.3 68 67.05 68.7 67.5 63.55 70.9 59.2 75 53.85 81.45 53.6 82 54.35 82.4 55.85 82.85 57.55 82.85 59.55 82.85 70.2 75.9 75.2 71.35 78.45 66.15 78.45 65.35 78.45 64.7 78.35
L 64.2 78.25 64.75 80.6
Q 65.55 83.5 66.9 86.25 71.25 95.05 79.4 98.9
L 87.6 90.45
Q 85.35 89.55 82.7 87.7 77.45 84.05 75.75 79.4
L 75.55 79.25 75.65 79.1 75.9 79.25
Q 82.45 78.15 87.25 73.45 93.4 67.45 93.4 57.7 93.4 53.4 92.7 50.05
L 92 47.55 Z"/>
</g>

<g id="Layer0_0_MEMBER_2_MEMBER_5_FILL">
<path fill="#00628C" stroke="none" d="
M 34.95 53.8
Q 37.5 54.25 39.6 55.5 46.35 59.35 46.35 69.2 46.35 80.75 36.6 86.75 31.75 89.75 26.85 90.45
L 35 98.6
Q 39.35 97.5 43.65 94.1 52.3 87.4 52.3 76.25 52.3 58.95 39.1 51.75 31.75 47.75 22.3 47.55
L 21.6 49.8
Q 20.9 53 20.9 57.7 20.9 67 27.1 73.35 32.4 78.75 38.1 78.75 40.95 78.75 42.15 77.45 39.05 76.95 36.1 73.95 31.55 69.2 31.55 60.55 31.55 56.9 32.2 54.9
L 32.85 53.6 34.95 53.8 Z"/>
</g>
</defs>

<g transform="matrix( 1, 0, 0, 1, -1.1,-0.55) ">
<use xlink:href="#Layer0_0_MEMBER_0_FILL"/>
</g>

<g transform="matrix( 1, 0, 0, 1, -1.1,-0.55) ">
<use xlink:href="#Layer0_0_MEMBER_1_FILL"/>
</g>

<g transform="matrix( 1, 0, 0, 1, -1.1,-0.55) ">
<use xlink:href="#Layer0_0_MEMBER_2_MEMBER_0_FILL"/>
</g>

<g transform="matrix( 1, 0, 0, 1, -1.1,-0.55) ">
<use xlink:href="#Layer0_0_MEMBER_2_MEMBER_1_FILL"/>
</g>

<g transform="matrix( 1, 0, 0, 1, -1.1,-0.55) ">
<use xlink:href="#Layer0_0_MEMBER_2_MEMBER_2_FILL"/>
</g>

<g transform="matrix( 1, 0, 0, 1, -1.1,-0.55) ">
<use xlink:href="#Layer0_0_MEMBER_2_MEMBER_3_FILL"/>
</g>

<g transform="matrix( 1, 0, 0, 1, -1.1,-0.55) ">
<use xlink:href="#Layer0_0_MEMBER_2_MEMBER_4_FILL"/>
</g>

<g transform="matrix( 1, 0, 0, 1, -1.1,-0.55) ">
<use xlink:href="#Layer0_0_MEMBER_2_MEMBER_5_FILL"/>
</g>
</svg>
